<svg xmlns="http://www.w3.org/2000/svg" viewBox="0 0 512 512" id="paw-symbol"><path d="M192.25 75.442C177.417 63.38 160.775 59.105 145.394 63.4c-30.977 8.658-46.512 50.288-34.631 92.8 10.409 37.241 38.45 62.993 66.068 62.993a43.2 43.2 0 0 0 11.659-1.591c30.977-8.657 46.512-50.288 34.631-92.8C217.463 104.56 206.5 87.029 192.25 75.442zm-6.912 130.886c-24.765 6.92-53.152-16.982-63.295-53.275s1.746-71.453 26.5-78.371a32.118 32.118 0 0 1 8.682-1.182c9.152 0 18.707 3.769 27.633 11.029 12.388 10.072 21.969 25.5 26.981 43.427C221.985 164.251 210.1 199.409 185.338 206.328zM102.939 224.2c-9.218-12.157-21.432-20.979-34.394-24.843-13.613-4.059-26.458-2.239-36.167 5.125s-14.928 19.24-14.693 33.442c.224 13.524 5.424 27.666 14.642 39.822 13.059 17.222 31.63 26.867 48.317 26.867a36.282 36.282 0 0 0 22.245-7.148c19.467-14.762 19.49-47.629.051-73.265zm-7.127 63.934C81.49 298.992 57.2 291.158 41.658 270.667c-7.725-10.188-12.081-21.886-12.264-32.939-.171-10.375 3.4-18.869 10.06-23.919a24.891 24.891 0 0 1 15.292-4.845A36.651 36.651 0 0 1 65.2 210.577c10.594 3.158 20.683 10.508 28.409 20.7C109.146 251.764 110.134 277.27 95.812 288.131zM177.283 286.648a5.831 5.831 0 0 0 3.01-.837l.427-.256a5.856 5.856 0 0 0-6.018-10.047l-.442.265a5.856 5.856 0 0 0 3.023 10.875z"></path><path d="M256 253.007c-3.922-.275-27.33-1.288-57.433 10.7a5.856 5.856 0 1 0 4.333 10.88c29.55-11.766 52.338-9.894 52.554-9.875a5.914 5.914 0 0 0 1.081 0c.229-.02 23.338-1.915 53.187 10.123 27.536 11.106 66.689 36.732 96.828 95.751a47.468 47.468 0 0 1 4.337 32.215 45.755 45.755 0 0 1-15.712 25.048 47.08 47.08 0 0 1-30.3 10.667 52.07 52.07 0 0 1-33.164-11.793c-16.193-13.393-42.473-29.36-75.715-29.36s-59.522 15.967-75.712 29.36a52.086 52.086 0 0 1-33.166 11.793 47.076 47.076 0 0 1-30.3-10.667A45.751 45.751 0 0 1 101.113 402.8a47.468 47.468 0 0 1 4.337-32.215c14.611-28.61 32.606-51.995 53.486-69.5a5.855 5.855 0 0 0-7.525-8.973c-22.089 18.523-41.062 43.134-56.391 73.15a59.185 59.185 0 0 0-5.313 40.193A57.206 57.206 0 0 0 109.3 436.82a58.8 58.8 0 0 0 37.823 13.406 63.817 63.817 0 0 0 40.63-14.48c14.709-12.168 38.489-26.673 68.248-26.673s53.539 14.5 68.249 26.673a63.811 63.811 0 0 0 40.63 14.48A58.8 58.8 0 0 0 402.7 436.82 57.223 57.223 0 0 0 422.3 405.452a59.188 59.188 0 0 0-5.315-40.194c-31.955-62.574-73.936-89.758-103.527-101.545C283.337 251.717 259.924 252.732 256 253.007zM323.51 217.607a43.194 43.194 0 0 0 11.658 1.591c27.618 0 55.662-25.754 66.069-62.993 5.659-20.244 5.373-40.918-.805-58.214C394 79.985 381.988 67.7 366.607 63.4s-32.023-.023-46.856 12.04C305.5 87.03 294.537 104.56 288.88 124.8s-5.372 40.918.805 58.215C296.115 201.024 308.128 213.308 323.51 217.607zm-23.35-89.651c5.01-17.932 14.591-33.355 26.979-43.427 8.927-7.26 18.48-11.029 27.633-11.029a32.119 32.119 0 0 1 8.683 1.182c11.617 3.246 20.832 12.923 25.948 27.248 5.37 15.035 5.567 33.19.555 51.123-10.143 36.294-38.533 60.2-63.3 53.275-11.617-3.247-20.832-12.923-25.947-27.248C295.345 164.045 295.148 145.889 300.16 127.956zM494.315 237.921c.236-14.2-4.983-26.079-14.693-33.442-19.468-14.764-51.12-5.917-70.562 19.718s-19.416 58.5.051 73.266a36.288 36.288 0 0 0 22.244 7.146c16.686 0 35.259-9.645 48.318-26.866C488.891 265.587 494.092 251.445 494.315 237.921zm-23.974 32.746c-15.536 20.491-39.832 28.323-54.153 17.464s-13.334-36.367 2.2-56.858 39.832-28.325 54.154-17.463c6.659 5.049 10.232 13.543 10.061 23.918C482.424 248.781 478.068 260.479 470.341 270.667z"></path></svg>